<svg xmlns="http://www.w3.org/2000/svg" viewBox="0 0 1000 900">
  <!-- Gradient Definitions -->
  <defs>
    <linearGradient id="userGradient" x1="0%" y1="0%" x2="100%" y2="100%">
      <stop offset="0%" stop-color="#e3f2fd" />
      <stop offset="100%" stop-color="#bbdefb" />
    </linearGradient>
    <linearGradient id="profileGradient" x1="0%" y1="0%" x2="100%" y2="100%">
      <stop offset="0%" stop-color="#e8f5e9" />
      <stop offset="100%" stop-color="#c8e6c9" />
    </linearGradient>
    <linearGradient id="messageGradient" x1="0%" y1="0%" x2="100%" y2="100%">
      <stop offset="0%" stop-color="#fff3e0" />
      <stop offset="100%" stop-color="#ffe0b2" />
    </linearGradient>
    <linearGradient id="groupGradient" x1="0%" y1="0%" x2="100%" y2="100%">
      <stop offset="0%" stop-color="#e0f7fa" />
      <stop offset="100%" stop-color="#b2ebf2" />
    </linearGradient>
    <linearGradient id="groupMsgGradient" x1="0%" y1="0%" x2="100%" y2="100%">
      <stop offset="0%" stop-color="#f3e5f5" />
      <stop offset="100%" stop-color="#e1bee7" />
    </linearGradient>
    <linearGradient id="m2mGradient" x1="0%" y1="0%" x2="100%" y2="100%">
      <stop offset="0%" stop-color="#ffebee" />
      <stop offset="100%" stop-color="#ffcdd2" />
    </linearGradient>
    <filter id="dropShadow" x="-20%" y="-20%" width="140%" height="140%">
      <feGaussianBlur in="SourceAlpha" stdDeviation="3" />
      <feOffset dx="2" dy="2" result="offsetblur" />
      <feComponentTransfer>
        <feFuncA type="linear" slope="0.2" />
      </feComponentTransfer>
      <feMerge>
        <feMergeNode />
        <feMergeNode in="SourceGraphic" />
      </feMerge>
    </filter>
  </defs>

  <!-- Background -->
  <rect width="1000" height="900" fill="#f8f9fa" rx="10" ry="10" />
  <rect x="10" y="10" width="980" height="880" fill="#ffffff" rx="8" ry="8" stroke="#e0e0e0" stroke-width="1" />
  
  <!-- Title -->
  <rect x="50" y="20" width="900" height="50" rx="8" ry="8" fill="#2d3748" />
  <text x="500" y="52" font-family="Arial, sans-serif" font-size="24" text-anchor="middle" font-weight="bold" fill="#ffffff">Django Chat Application - Entity Relationship Diagram</text>
  
  <!-- User Table -->
  <rect x="50" y="100" width="300" height="320" fill="url(#userGradient)" stroke="#1565c0" stroke-width="2" rx="8" ry="8" filter="url(#dropShadow)" />
  <rect x="50" y="100" width="300" height="35" fill="#1565c0" rx="8" ry="8" />
  <text x="200" y="124" font-family="Arial, sans-serif" font-size="16" text-anchor="middle" font-weight="bold" fill="#ffffff">User (Django Auth)</text>
  
  <text x="60" y="155" font-family="Arial, sans-serif" font-size="14" fill="#333333"><tspan font-weight="bold">id (PK)</tspan> - AutoField</text>
  <text x="60" y="175" font-family="Arial, sans-serif" font-size="14" fill="#333333">username - CharField(150)</text>
  <text x="60" y="195" font-family="Arial, sans-serif" font-size="14" fill="#333333">password - CharField(128)</text>
  <text x="60" y="215" font-family="Arial, sans-serif" font-size="14" fill="#333333">email - EmailField(254)</text>
  <text x="60" y="235" font-family="Arial, sans-serif" font-size="14" fill="#333333">first_name - CharField(150)</text>
  <text x="60" y="255" font-family="Arial, sans-serif" font-size="14" fill="#333333">last_name - CharField(150)</text>
  <text x="60" y="275" font-family="Arial, sans-serif" font-size="14" fill="#333333">is_active - BooleanField</text>
  <text x="60" y="295" font-family="Arial, sans-serif" font-size="14" fill="#333333">is_staff - BooleanField</text>
  <text x="60" y="315" font-family="Arial, sans-serif" font-size="14" fill="#333333">is_superuser - BooleanField</text>
  <text x="60" y="335" font-family="Arial, sans-serif" font-size="14" fill="#333333">date_joined - DateTimeField</text>
  <text x="60" y="355" font-family="Arial, sans-serif" font-size="14" fill="#333333">last_login - DateTimeField</text>
  <text x="60" y="375" font-family="Arial, sans-serif" font-size="14" fill="#333333">groups - M2M(Group)</text>
  <text x="60" y="395" font-family="Arial, sans-serif" font-size="14" fill="#333333">user_permissions - M2M(Permission)</text>
  
  <!-- UserProfile Table -->
  <rect x="50" y="460" width="300" height="100" fill="url(#profileGradient)" stroke="#2e7d32" stroke-width="2" rx="8" ry="8" filter="url(#dropShadow)" />
  <rect x="50" y="460" width="300" height="35" fill="#2e7d32" rx="8" ry="8" />
  <text x="200" y="484" font-family="Arial, sans-serif" font-size="16" text-anchor="middle" font-weight="bold" fill="#ffffff">UserProfile</text>
  
  <text x="60" y="515" font-family="Arial, sans-serif" font-size="14" fill="#333333"><tspan font-weight="bold">id (PK)</tspan> - AutoField</text>
  <text x="60" y="535" font-family="Arial, sans-serif" font-size="14" fill="#333333"><tspan font-style="italic">user_id (FK)</tspan> - OneToOneField(User)</text>
  <text x="60" y="555" font-family="Arial, sans-serif" font-size="14" fill="#333333">profile_photo - ImageField</text>
  
  <!-- Message Table -->
  <rect x="410" y="100" width="300" height="180" fill="url(#messageGradient)" stroke="#e65100" stroke-width="2" rx="8" ry="8" filter="url(#dropShadow)" />
  <rect x="410" y="100" width="300" height="35" fill="#e65100" rx="8" ry="8" />
  <text x="560" y="124" font-family="Arial, sans-serif" font-size="16" text-anchor="middle" font-weight="bold" fill="#ffffff">Message</text>
  
  <text x="420" y="155" font-family="Arial, sans-serif" font-size="14" fill="#333333"><tspan font-weight="bold">id (PK)</tspan> - AutoField</text>
  <text x="420" y="175" font-family="Arial, sans-serif" font-size="14" fill="#333333"><tspan font-style="italic">sender_id (FK)</tspan> - ForeignKey(User)</text>
  <text x="420" y="195" font-family="Arial, sans-serif" font-size="14" fill="#333333"><tspan font-style="italic">receiver_id (FK)</tspan> - ForeignKey(User)</text>
  <text x="420" y="215" font-family="Arial, sans-serif" font-size="14" fill="#333333">content - TextField</text>
  <text x="420" y="235" font-family="Arial, sans-serif" font-size="14" fill="#333333">image - ImageField(null=True)</text>
  <text x="420" y="255" font-family="Arial, sans-serif" font-size="14" fill="#333333">timestamp - DateTimeField(auto_now_add)</text>
  <text x="420" y="275" font-family="Arial, sans-serif" font-size="14" fill="#333333">is_read - BooleanField(default=False)</text>
  
  <!-- Group Table -->
  <rect x="410" y="330" width="300" height="160" fill="url(#groupGradient)" stroke="#006064" stroke-width="2" rx="8" ry="8" filter="url(#dropShadow)" />
  <rect x="410" y="330" width="300" height="35" fill="#006064" rx="8" ry="8" />
  <text x="560" y="354" font-family="Arial, sans-serif" font-size="16" text-anchor="middle" font-weight="bold" fill="#ffffff">Group</text>
  
  <text x="420" y="385" font-family="Arial, sans-serif" font-size="14" fill="#333333"><tspan font-weight="bold">id (PK)</tspan> - AutoField</text>
  <text x="420" y="405" font-family="Arial, sans-serif" font-size="14" fill="#333333">name - CharField(255)</text>
  <text x="420" y="425" font-family="Arial, sans-serif" font-size="14" fill="#333333">description - TextField(null=True)</text>
  <text x="420" y="445" font-family="Arial, sans-serif" font-size="14" fill="#333333"><tspan font-style="italic">creator_id (FK)</tspan> - ForeignKey(User)</text>
  <text x="420" y="465" font-family="Arial, sans-serif" font-size="14" fill="#333333">created_at - DateTimeField(auto_now_add)</text>
  <text x="420" y="485" font-family="Arial, sans-serif" font-size="14" fill="#333333">group_photo - ImageField(null=True)</text>
  
  <!-- GroupMessage Table -->
  <rect x="770" y="330" width="300" height="160" fill="url(#groupMsgGradient)" stroke="#6a1b9a" stroke-width="2" rx="8" ry="8" filter="url(#dropShadow)" />
  <rect x="770" y="330" width="300" height="35" fill="#6a1b9a" rx="8" ry="8" />
  <text x="920" y="354" font-family="Arial, sans-serif" font-size="16" text-anchor="middle" font-weight="bold" fill="#ffffff">GroupMessage</text>
  
  <text x="780" y="385" font-family="Arial, sans-serif" font-size="14" fill="#333333"><tspan font-weight="bold">id (PK)</tspan> - AutoField</text>
  <text x="780" y="405" font-family="Arial, sans-serif" font-size="14" fill="#333333"><tspan font-style="italic">group_id (FK)</tspan> - ForeignKey(Group)</text>
  <text x="780" y="425" font-family="Arial, sans-serif" font-size="14" fill="#333333"><tspan font-style="italic">sender_id (FK)</tspan> - ForeignKey(User)</text>
  <text x="780" y="445" font-family="Arial, sans-serif" font-size="14" fill="#333333">content - TextField</text>
  <text x="780" y="465" font-family="Arial, sans-serif" font-size="14" fill="#333333">image - ImageField(null=True)</text>
  <text x="780" y="485" font-family="Arial, sans-serif" font-size="14" fill="#333333">timestamp - DateTimeField(auto_now_add)</text>
  
  <!-- Group_Members (M2M) -->
  <rect x="410" y="540" width="300" height="100" fill="url(#m2mGradient)" stroke="#b71c1c" stroke-width="2" rx="8" ry="8" filter="url(#dropShadow)" />
  <rect x="410" y="540" width="300" height="35" fill="#b71c1c" rx="8" ry="8" />
  <text x="560" y="564" font-family="Arial, sans-serif" font-size="16" text-anchor="middle" font-weight="bold" fill="#ffffff">Group_Members (M2M)</text>
  
  <text x="420" y="595" font-family="Arial, sans-serif" font-size="14" fill="#333333"><tspan font-weight="bold">id (PK)</tspan> - AutoField</text>
  <text x="420" y="615" font-family="Arial, sans-serif" font-size="14" fill="#333333"><tspan font-style="italic">group_id (FK)</tspan> - ForeignKey(Group)</text>
  <text x="420" y="635" font-family="Arial, sans-serif" font-size="14" fill="#333333"><tspan font-style="italic">user_id (FK)</tspan> - ForeignKey(User)</text>
  
  <!-- Relationships -->
  <!-- User to UserProfile (1:1) -->
  <path d="M200,420 Q200,440 200,460" stroke="#2e7d32" stroke-width="2" fill="none" stroke-dasharray="0" />
  <circle cx="200" cy="420" r="6" fill="#2e7d32" stroke="#ffffff" stroke-width="1" />
  <circle cx="200" cy="460" r="6" fill="#2e7d32" stroke="#ffffff" stroke-width="1" />
  <rect x="175" y="432" width="30" height="18" fill="#ffffff" rx="5" ry="5" />
  <text x="190" y="445" font-family="Arial, sans-serif" font-size="12" text-anchor="middle" font-weight="bold">1:1</text>
  
  <!-- User to Message (1:N) - Combined relation -->
  <path d="M350,190 Q380,190 410,190" stroke="#e65100" stroke-width="2" fill="none" />
  <circle cx="350" cy="190" r="6" fill="#e65100" stroke="#ffffff" stroke-width="1" />
  <polygon points="404,190 394,185 394,195" fill="#e65100" stroke="#ffffff" stroke-width="1" />
  <rect x="365" y="172" width="30" height="18" fill="#ffffff" rx="5" ry="5" />
  <text x="380" y="185" font-family="Arial, sans-serif" font-size="12" text-anchor="middle" font-weight="bold">1:N</text>
  
  <!-- User to Group (1:N as creator) -->
  <path d="M350,380 Q380,380 410,445" stroke="#006064" stroke-width="2" fill="none" />
  <circle cx="350" cy="380" r="6" fill="#006064" stroke="#ffffff" stroke-width="1" />
  <polygon points="410,445 405,435 415,435" fill="#006064" stroke="#ffffff" stroke-width="1" />
  <rect x="370" y="395" width="30" height="18" fill="#ffffff" rx="5" ry="5" />
  <text x="385" y="408" font-family="Arial, sans-serif" font-size="10" text-anchor="middle">1:N</text>
  <text x="385" y="428" font-family="Arial, sans-serif" font-size="10" text-anchor="middle" font-style="italic">creator</text>
  
  <!-- User to Group_Members (M:N) -->
  <path d="M200,560 Q200,590 305,590 Q410,590 410,615" stroke="#b71c1c" stroke-width="2" fill="none" />
  <circle cx="200" cy="560" r="6" fill="#b71c1c" stroke="#ffffff" stroke-width="1" />
  <polygon points="410,615 405,605 415,605" fill="#b71c1c" stroke="#ffffff" stroke-width="1" />
  <rect x="295" y="592" width="30" height="18" fill="#ffffff" rx="5" ry="5" />
  <text x="310" y="605" font-family="Arial, sans-serif" font-size="10" text-anchor="middle">M:N</text>
  <text x="310" y="625" font-family="Arial, sans-serif" font-size="10" text-anchor="middle" font-style="italic">members</text>
  
  <!-- Group to Group_Members (1:N) -->
  <path d="M560,490 Q560,515 560,540" stroke="#b71c1c" stroke-width="2" fill="none" />
  <circle cx="560" cy="490" r="6" fill="#b71c1c" stroke="#ffffff" stroke-width="1" />
  <polygon points="560,534 555,524 565,524" fill="#b71c1c" stroke="#ffffff" stroke-width="1" />
  <rect x="570" y="515" width="30" height="18" fill="#ffffff" rx="5" ry="5" />
  <text x="585" y="528" font-family="Arial, sans-serif" font-size="12" text-anchor="middle">1:N</text>
  
  <!-- Group to GroupMessage (1:N) -->
  <path d="M710,400 Q740,400 770,400" stroke="#6a1b9a" stroke-width="2" fill="none" />
  <circle cx="710" cy="400" r="6" fill="#6a1b9a" stroke="#ffffff" stroke-width="1" />
  <polygon points="764,400 754,395 754,405" fill="#6a1b9a" stroke="#ffffff" stroke-width="1" />
  <rect x="725" y="382" width="30" height="18" fill="#ffffff" rx="5" ry="5" />
  <text x="740" y="395" font-family="Arial, sans-serif" font-size="12" text-anchor="middle">1:N</text>
  
  <!-- User to GroupMessage (1:N as sender) -->
  <path d="M200,560 Q200,680 485,680 Q770,680 840,490" stroke="#6a1b9a" stroke-width="2" fill="none" />
  <circle cx="200" cy="560" r="6" fill="#6a1b9a" stroke="#ffffff" stroke-width="1" />
  <polygon points="840,490 835,500 845,500" fill="#6a1b9a" stroke="#ffffff" stroke-width="1" />
  <rect x="485" y="682" width="30" height="18" fill="#ffffff" rx="5" ry="5" />
  <text x="500" y="695" font-family="Arial, sans-serif" font-size="10" text-anchor="middle">1:N</text>
  <text x="500" y="715" font-family="Arial, sans-serif" font-size="10" text-anchor="middle" font-style="italic">sender</text>
  
  <!-- Legend -->
  <rect x="770" y="100" width="300" height="180" fill="#ffffff" stroke="#333333" stroke-width="1" rx="8" ry="8" filter="url(#dropShadow)" />
  <rect x="770" y="100" width="300" height="35" fill="#333333" rx="8" ry="8" />
  <text x="920" y="124" font-family="Arial, sans-serif" font-size="16" text-anchor="middle" font-weight="bold" fill="#ffffff">Legend</text>
  
  <circle cx="790" cy="155" r="6" fill="#333333" stroke="#ffffff" stroke-width="1" />
  <text x="810" y="160" font-family="Arial, sans-serif" font-size="14" fill="#333333">One (1)</text>
  
  <polygon points="790,185 785,175 795,175" fill="#333333" stroke="#ffffff" stroke-width="1" />
  <text x="810" y="185" font-family="Arial, sans-serif" font-size="14" fill="#333333">Many (N)</text>
  
  <text x="790" y="215" font-family="Arial, sans-serif" font-size="14" fill="#333333"><tspan font-weight="bold">PK</tspan> = Primary Key</text>
  <text x="790" y="235" font-family="Arial, sans-serif" font-size="14" fill="#333333"><tspan font-style="italic">FK</tspan> = Foreign Key</text>
  <text x="790" y="255" font-family="Arial, sans-serif" font-size="14" fill="#333333">M2M = Many to Many</text>
  
  <!-- Footer -->
  <rect x="50" y="850" width="900" height="30" rx="5" ry="5" fill="#f1f1f1" stroke="#e0e0e0" stroke-width="1" />
  <text x="500" y="870" font-family="Arial, sans-serif" font-size="12" text-anchor="middle" fill="#666666">Django Chat Application - Entity Relationship Diagram</text>
</svg>
